HIERARCHY
ROOT Hips
{
	OFFSET 0.000000 0.000000 0.000000 
	CHANNELS 6 Xposition Yposition Zposition Zrotation Yrotation Xrotation
	JOINT LeftUpLeg
	{
		OFFSET 1.363060 -1.794630 0.839290 
		CHANNELS 3 Zrotation Yrotation Xrotation
		JOINT LeftLeg
		{
			OFFSET 2.448110 -6.726130 0.000000 
			CHANNELS 3 Zrotation Yrotation Xrotation
			JOINT LeftFoot
			{
				OFFSET 2.562200 -7.039590 0.000000 
				CHANNELS 3 Zrotation Yrotation Xrotation
				JOINT LeftToeBase
				{
					OFFSET 0.157640 -0.433110 2.322550 
					CHANNELS 3 Zrotation Yrotation Xrotation
					End Site
					{
						OFFSET 0.000000 0.000000 0.000000 
					}
				}
			}
		}
	}
	JOINT RightUpLeg
	{
		OFFSET -1.305520 -1.794630 0.839290 
		CHANNELS 3 Zrotation Yrotation Xrotation
		JOINT RightLeg
		{
			OFFSET -2.542530 -6.985550 0.000000 
			CHANNELS 3 Zrotation Yrotation Xrotation
			JOINT RightFoot
			{
				OFFSET -2.568260 -7.056230 0.000000 
				CHANNELS 3 Zrotation Yrotation Xrotation
				JOINT RightToeBase
				{
					OFFSET -0.164730 -0.452590 2.363150 
					CHANNELS 3 Zrotation Yrotation Xrotation
					End Site
					{
						OFFSET 0.000000 0.000000 0.000000 
					}
				}
			}
		}
	}
	JOINT Spine
	{
		OFFSET 0.028270 2.035590 -0.193380 
		CHANNELS 3 Zrotation Yrotation Xrotation
		JOINT Spine1
		{
			OFFSET 0.056720 2.048850 -0.042750 
			CHANNELS 3 Zrotation Yrotation Xrotation
			JOINT Neck1
			{
				OFFSET -0.054170 1.746240 0.172020 
				CHANNELS 3 Zrotation Yrotation Xrotation
				JOINT Head
				{
					OFFSET 0.104070 1.761360 -0.123970 
					CHANNELS 3 Zrotation Yrotation Xrotation
					End Site
					{
						OFFSET 0.000000 0.000000 0.000000 
					}
				}
			}
			JOINT LeftArm
			{
				OFFSET 3.362410 1.200890 -0.311210 
				CHANNELS 3 Zrotation Yrotation Xrotation
				JOINT LeftForeArm
				{
					OFFSET 4.983000 -0.000000 -0.000000 
					CHANNELS 3 Zrotation Yrotation Xrotation
					JOINT LeftHand
					{
						OFFSET 3.483560 -0.000000 -0.000000 
						CHANNELS 3 Zrotation Yrotation Xrotation
						JOINT LeftHandIndex1
						{
							OFFSET 0.715260 -0.000000 -0.000000 
							CHANNELS 3 Zrotation Yrotation Xrotation
							End Site
							{
								OFFSET 0.000000 0.000000 0.000000 
							}
						}
					}
				}
			}
			JOINT RightArm
			{
				OFFSET -3.136600 1.374050 -0.404650 
				CHANNELS 3 Zrotation Yrotation Xrotation
				JOINT RightForeArm
				{
					OFFSET -5.241900 -0.000000 -0.000000 
					CHANNELS 3 Zrotation Yrotation Xrotation
					JOINT RightHand
					{
						OFFSET -3.444170 -0.000000 -0.000000 
						CHANNELS 3 Zrotation Yrotation Xrotation
						JOINT RightHandIndex1
						{
							OFFSET -0.622530 -0.000000 -0.000000 
							CHANNELS 3 Zrotation Yrotation Xrotation
							End Site
							{
								OFFSET 0.000000 0.000000 0.000000 
							}
						}
					}
				}
			}
		}
	}
}
MOTION
Frames: 9
Frame Time: 0.041667
5.019279 15.368324 -4.586423 -0.646536 81.038590 18.072820 -7.982242 -4.913811 -62.262133 11.916474 20.348828 67.431939 1.074328 -4.529112 -4.508174 0.001800 0.276400 0.759300 4.770542 2.788307 -25.541035 -9.273586 -18.058573 58.518642 -1.128881 -15.011393 -33.764993 -2.053100 8.975800 -25.719500 -1.568912 0.839876 0.918581 -2.871638 1.450854 -5.459430 -7.684666 13.340554 2.983108 -2.616700 4.147200 11.796300 -87.991164 -34.966109 118.555134 26.403008 -36.249084 -6.989738 0.256144 -0.061521 -2.443973 -7.125000 0.000000 0.000000 65.877694 8.871170 47.899359 -18.050269 29.830449 -5.620270 0.691323 1.669477 -48.547414 7.125000 0.000000 0.000000 
5.158137 15.447206 -4.692930 -3.188669 80.820929 15.777383 -8.060854 -5.056428 -61.708418 11.790793 20.336429 67.060556 1.074634 -4.356500 -5.072405 0.000200 0.080300 0.220500 5.398838 2.510845 -24.911029 -8.797117 -17.751595 56.811307 -1.106171 -15.283792 -33.743861 -1.935600 8.730600 -24.956300 -1.565184 1.137994 0.893901 -2.973337 1.583461 -5.492076 -7.349293 12.811709 2.718826 -2.505000 3.978700 11.517100 -87.407325 -34.776834 118.279677 27.652778 -37.450020 -7.647650 0.281184 -0.111762 -2.192976 -7.125000 0.000000 0.000000 65.992610 9.043872 46.890031 -16.744451 28.621493 -5.263946 0.767538 1.662717 -45.228612 7.125000 0.000000 0.000000 
5.300146 15.516740 -4.797861 -6.178851 80.379495 13.071427 -8.050445 -5.106991 -61.145290 11.678700 20.315238 66.714473 1.071699 -4.098860 -5.840601 0.000500 -0.141800 -0.389600 6.063720 2.276451 -24.441932 -8.327303 -17.435691 55.099394 -1.073799 -15.425675 -33.523286 -1.925400 8.708900 -24.889000 -1.558879 1.411378 0.864932 -3.052301 1.704762 -5.374242 -7.108519 12.355629 2.320888 -2.482400 3.854400 11.212500 -86.440311 -34.880240 117.721843 29.045860 -38.711340 -8.410401 0.322593 -0.161198 -2.492608 -7.125000 0.000000 0.000000 66.085048 9.319195 46.252346 -15.733210 27.601150 -4.919258 0.921538 1.593367 -41.550759 7.125000 0.000000 0.000000 
5.415056 15.581128 -4.888193 -8.494919 80.035526 11.360337 -7.923424 -5.310342 -61.014283 11.558631 20.298627 66.352859 1.057287 -3.831773 -6.395535 0.001600 -0.254700 -0.699700 6.661982 2.016470 -24.623615 -7.923917 -17.158850 53.611271 -1.058184 -15.265778 -33.119829 -1.915100 8.686900 -24.820700 -1.545444 1.532300 0.819311 -2.959855 1.738554 -5.155065 -6.675428 11.947128 1.965005 -2.354800 3.752300 10.978700 -85.160976 -35.005727 116.663777 30.609615 -40.065935 -9.302871 0.357753 -0.194283 -3.238711 -7.125000 0.000000 0.000000 66.197835 9.628278 45.782451 -15.073683 26.929488 -4.727737 1.074837 1.508074 -37.542188 7.125000 0.000000 0.000000 
5.541520 15.656649 -4.973588 -10.799728 79.259572 9.142874 -7.813921 -5.192131 -60.165750 11.423082 20.247679 65.928208 1.042658 -3.531923 -7.019732 0.001500 -0.248200 -0.681900 7.379578 2.102438 -24.242822 -7.559654 -16.911526 52.245434 -1.058908 -14.866621 -32.613680 -1.894500 8.642700 -24.683800 -1.558547 1.829493 0.826293 -2.869606 1.864104 -4.933566 -6.001505 11.589086 1.817152 -2.049000 3.657400 10.892200 -83.683560 -35.138595 115.349968 32.453666 -41.575848 -10.397309 0.391289 -0.231342 -3.956115 -7.125000 0.000000 0.000000 66.189734 9.873895 45.585721 -14.732283 26.569543 -4.637828 1.220567 1.407863 -33.633601 7.125000 0.000000 0.000000 
5.649603 15.726814 -5.047113 -12.095622 78.674026 8.174441 -7.718763 -5.322412 -59.625530 11.249994 20.205458 65.410282 0.991990 -3.072071 -7.478252 0.002100 -0.292600 -0.804100 7.951407 2.216947 -24.327652 -7.272866 -16.722508 51.168785 -1.027144 -14.672346 -32.113703 -1.885900 8.624200 -24.626500 -1.555517 2.073242 0.752998 -2.730907 1.962940 -4.879584 -5.638359 11.217664 1.561735 -1.941200 3.556400 10.701200 -82.045141 -35.245900 114.182930 34.442732 -43.083997 -11.614515 0.434943 -0.267008 -4.883813 -7.125000 0.000000 0.000000 66.041917 9.775757 45.758483 -14.833047 26.658458 -4.680613 1.348689 1.296136 -30.287347 7.125000 0.000000 0.000000 
5.737624 15.795087 -5.110555 -12.822565 78.249510 8.050863 -7.645131 -5.590357 -59.407561 11.039982 20.163174 64.793020 0.926093 -2.562694 -7.843460 0.001800 -0.273800 -0.752400 8.444566 2.288476 -24.784460 -6.964927 -16.516584 50.010958 -0.935494 -14.710231 -31.389477 -1.820500 8.481700 -24.187000 -1.517526 2.258682 0.847807 -2.501456 2.010126 -4.973511 -5.594350 10.838602 1.074395 -2.003500 3.450900 10.340300 -80.317564 -35.533504 113.266682 36.461191 -44.481296 -12.881165 0.481914 -0.288224 -6.291148 -7.125000 0.000000 0.000000 65.645175 9.530419 46.300022 -15.396693 27.212758 -4.885833 1.459963 1.181534 -27.615669 7.125000 0.000000 0.000000 
5.835518 15.873550 -5.168956 -13.278147 77.460406 7.788986 -7.730836 -5.421316 -58.682229 10.814636 20.067687 64.104672 0.885382 -2.171141 -8.322397 0.001600 -0.255600 -0.702300 8.933863 2.635676 -24.899787 -6.711652 -16.351919 49.048753 -0.884454 -14.588474 -30.813284 -1.650100 8.095600 -23.004800 -1.478705 2.564386 0.818038 -2.048225 2.125263 -4.769594 -5.305594 10.601416 0.714500 -1.868500 3.395200 10.103800 -78.662678 -35.675101 111.442620 38.661279 -45.949961 -14.324283 0.480552 -0.208760 -6.633707 -7.125000 0.000000 0.000000 65.005692 9.382656 47.126656 -16.416156 28.214495 -5.258855 1.541924 1.082841 -25.644937 7.125000 0.000000 0.000000 
6.010614 15.978481 -5.236074 -14.283475 75.535820 5.751515 -8.067270 -4.196612 -56.175650 10.584212 19.873389 63.339296 0.878035 -1.770230 -9.405721 0.003600 -0.388300 -1.066800 9.731470 3.449293 -23.248076 -6.416193 -16.146027 47.881608 -0.927667 -13.974994 -30.467740 -1.475700 7.676100 -21.734400 -1.506615 3.370734 0.952630 -1.850716 2.503553 -4.488443 -4.902152 10.424720 0.556078 -1.668400 3.364900 9.977100 -77.122999 -34.870923 108.090411 41.094164 -47.565389 -16.051629 0.497285 -0.187625 -6.197050 -7.125000 0.000000 0.000000 64.342646 9.179623 48.014222 -17.685106 29.450932 -5.710286 1.590730 0.999351 -24.193228 7.125000 0.000000 0.000000 
